<svg width="46" height="46" viewBox="0 0 46 46" fill="none" xmlns="http://www.w3.org/2000/svg">
<g clip-path="url(#clip0_11590_1114)">
<path d="M0 0H46V46H0V0Z" fill="#44A3DD"/>
<path d="M8.98458 16.5312H18.4547C19.166 16.5312 19.8202 16.9204 20.1598 17.5453L28.5918 33.0625H17.3088C16.5976 33.0625 15.9433 32.6734 15.6037 32.0484L8.03728 18.1241C7.75299 17.601 7.94664 16.9464 8.46982 16.6621C8.62781 16.5762 8.80477 16.5312 8.98458 16.5312Z" fill="#BEE5F7"/>
<path d="M37.0808 16.5312C37.2606 16.5312 37.4376 16.5762 37.5956 16.6621C38.1029 16.9378 38.3004 17.5616 38.0526 18.0762L38.0281 18.1241L30.4617 32.0484C30.1331 32.6532 29.5097 33.0372 28.8252 33.0613L28.7566 33.0625H17.6494H17.3086L17.2398 33.0613C16.8821 33.0486 16.541 32.9377 16.25 32.7483C16.3958 32.8321 16.5608 32.886 16.7368 32.9019C16.7555 32.9036 16.9064 32.9176 17.0743 32.8725C17.1453 32.8534 17.4074 32.7922 17.6851 32.5325C17.7681 32.4548 17.8842 32.288 18.0334 32.0321L25.9056 17.5453C26.2342 16.9405 26.8575 16.5566 27.542 16.5325L27.6107 16.5312H37.0808Z" fill="white"/>
</g>
<defs>
<clipPath id="clip0_11590_1114">
<rect width="46" height="46" rx="12" fill="white"/>
</clipPath>
</defs>
</svg>
